<svg width="162" height="35" viewBox="0 0 162 35" fill="none" xmlns="http://www.w3.org/2000/svg">
<path d="M12.839 20.3478C12.9248 18.5288 14.384 16.6063 16.2592 15.7037C17.9122 14.9079 19.0067 14.7638 23.7696 14.7144C24.3243 14.7086 26.9952 14.7038 29.7047 14.7038L34.6309 14.7037V14.7342C34.6309 14.7689 34.5271 15.6241 34.4767 16.005C33.0739 26.595 27.1499 32.6 17.3327 33.3835C16.5821 33.4435 16.1895 33.4582 15.0354 33.4701C13.3013 33.4878 12.3572 33.5222 11.8938 33.5843C11.6812 33.6127 11.6737 33.6161 11.5692 33.7231C11.3609 33.9362 10.5908 34.5653 10.0434 34.9696L10.0022 35V34.9287C10.0022 34.8897 10.0171 34.6145 10.0352 34.3172C10.0533 34.02 10.0781 33.6147 10.0902 33.4166C10.1573 32.3165 10.1971 31.7923 10.2605 31.1742C10.3313 30.4834 10.3706 30.2041 10.4574 29.7761C10.5675 29.2325 10.7 28.4075 10.7977 27.6575C10.9121 26.7795 10.9866 26.6041 11.3153 26.4399C11.7378 26.2287 12.2854 26.1898 14.842 26.1893C16.477 26.1888 18.3055 26.1743 18.8222 26.1574C21.7419 26.0618 22.5517 25.733 23.4332 24.2853C23.6305 23.9612 24.1511 22.9696 24.3699 22.5007C25.1875 20.7497 24.7823 20.4676 21.3078 20.3698C21.0551 20.3628 19.3442 20.3563 16.8678 20.3529L12.839 20.3478ZM3.58734 28.9014C3.33474 28.8187 3.04345 28.5744 2.57149 28.0493C-0.0257468 25.1602 -0.697175 20.6934 0.747372 15.9135C2.18307 11.1629 5.47187 6.8165 9.79387 3.95799C13.9143 1.2327 16.1712 0.741995 25.4144 0.561525C29.2747 0.486184 31.687 0.35442 33.1944 0.13664C35.0336 -0.129048 35.0722 -0.106254 34.8601 1.12081C34.4039 3.76062 33.8587 4.87371 32.6353 5.66425C31.319 6.51463 29.4473 6.88932 24.8716 7.21856C22.391 7.39699 20.3768 7.71958 18.4677 8.24399C11.2913 10.2155 7.06974 14.8816 5.16093 22.9524C4.65419 25.095 4.3145 26.9273 4.28931 27.6542C4.26403 28.3831 4.15112 28.7459 3.90582 28.8869C3.84005 28.9248 3.68066 28.9321 3.58734 28.9014Z" fill="#00E676"/>
<path d="M43.81 12.432V9.35542H58.3054V12.432H52.9019V27.0049H49.2135V12.432H43.81ZM61.578 27.0049H57.5793L63.6722 9.35542H68.481L74.5652 27.0049H70.5665L66.1455 13.3886H66.0076L61.578 27.0049ZM61.3281 20.0675H70.7733V22.9803H61.3281V20.0675Z" fill="white"/>
<path d="M69.369 17.7807L66.4072 20.5207C67.4771 20.5207 67.5163 20.599 67.8816 20.7555C68.1546 20.8726 68.6514 21.3427 68.8601 21.5775C70.4258 23.0867 73.6694 26.2171 74.1182 26.666C74.567 27.1148 74.8097 27.3053 74.8749 27.3444C75.4386 27.6785 75.8908 27.2922 76.0101 27.0444C76.7233 25.5613 78.6822 21.7837 80.8115 18.5375C83.4731 14.4798 83.7732 14.2449 85.8869 11.6615C87.5778 9.59484 89.6619 8.04308 90.4926 7.52553C87.7788 8.15181 83.882 11.3528 82.2728 12.8749C81.0202 13.9448 78.3847 17.1545 77.9933 17.6372C77.6801 18.0234 76.4363 19.6509 75.8535 20.4163C75.6099 20.8034 75.0393 21.614 74.7053 21.7602C74.2878 21.9428 73.9877 21.8385 73.6876 21.5775C73.4476 21.3688 72.9526 20.6903 72.7352 20.3772C72.2611 19.6726 71.1747 18.1669 70.6215 17.7807C70.0683 17.3945 69.5647 17.6111 69.369 17.7807Z" fill="#EAEBEC"/>
<path d="M76.7407 8.98647H71.1304L77.1582 17.5325L80.2244 13.9966L76.7407 8.98647Z" fill="white"/>
<path d="M82.4294 17.1808L79.833 21.3429L83.6167 26.7054H89.0575L82.4294 17.1808Z" fill="white"/>
<path d="M98.8351 14.4832C98.7661 13.7881 98.4702 13.248 97.9474 12.8631C97.4246 12.4781 96.715 12.2857 95.8188 12.2857C95.2098 12.2857 94.6956 12.3719 94.2762 12.5442C93.8568 12.7108 93.535 12.9435 93.311 13.2423C93.0927 13.541 92.9835 13.88 92.9835 14.2592C92.972 14.5752 93.0381 14.8509 93.1817 15.0865C93.3311 15.3221 93.535 15.526 93.7936 15.6984C94.0521 15.865 94.3509 16.0115 94.6898 16.1379C95.0288 16.2585 95.3908 16.362 95.7757 16.4481L97.3614 16.8273C98.1313 16.9997 98.8379 17.2295 99.4814 17.5168C100.125 17.804 100.682 18.1573 101.153 18.5768C101.624 18.9962 101.989 19.4903 102.248 20.059C102.512 20.6278 102.647 21.2799 102.653 22.0153C102.647 23.0954 102.371 24.0319 101.825 24.8247C101.285 25.6118 100.504 26.2237 99.4814 26.6604C98.4645 27.0913 97.2379 27.3067 95.8015 27.3067C94.3767 27.3067 93.1357 27.0884 92.0786 26.6517C91.0272 26.2151 90.2056 25.5688 89.6139 24.7127C89.0279 23.8509 88.7205 22.7852 88.6918 21.5155H92.3027C92.3429 22.1072 92.5124 22.6013 92.8111 22.9977C93.1156 23.3884 93.5207 23.6843 94.0263 23.8854C94.5376 24.0807 95.115 24.1784 95.7585 24.1784C96.3904 24.1784 96.9391 24.0865 97.4045 23.9026C97.8756 23.7188 98.2404 23.4631 98.499 23.1356C98.7575 22.8082 98.8868 22.4318 98.8868 22.0067C98.8868 21.6103 98.769 21.277 98.5334 21.007C98.3036 20.737 97.9646 20.5072 97.5165 20.3176C97.0741 20.128 96.5312 19.9556 95.8877 19.8005L93.9659 19.3179C92.4779 18.9559 91.303 18.39 90.4412 17.6202C89.5794 16.8503 89.1514 15.8133 89.1571 14.5091C89.1514 13.4405 89.4358 12.5069 90.0103 11.7083C90.5906 10.9097 91.3863 10.2863 92.3975 9.83819C93.4086 9.39006 94.5577 9.16599 95.8446 9.16599C97.1546 9.16599 98.2979 9.39006 99.2746 9.83819C100.257 10.2863 101.021 10.9097 101.567 11.7083C102.113 12.5069 102.394 13.4319 102.411 14.4832H98.8351ZM104.491 12.4839V9.40729H118.986V12.4839H113.582V27.0568H109.894V12.4839H104.491ZM125.105 9.40729V27.0568H121.373V9.40729H125.105ZM143.747 15.5863H139.973C139.904 15.098 139.763 14.6642 139.55 14.285C139.338 13.9001 139.065 13.5726 138.732 13.3026C138.398 13.0326 138.014 12.8257 137.577 12.6821C137.146 12.5385 136.678 12.4667 136.172 12.4667C135.259 12.4667 134.463 12.6936 133.785 13.1475C133.107 13.5956 132.581 14.2506 132.208 15.1124C131.834 15.9684 131.648 17.0083 131.648 18.232C131.648 19.4903 131.834 20.5474 132.208 21.4034C132.587 22.2595 133.116 22.9058 133.794 23.3425C134.472 23.7791 135.256 23.9974 136.146 23.9974C136.646 23.9974 137.109 23.9314 137.534 23.7992C137.965 23.6671 138.347 23.4746 138.68 23.2218C139.013 22.9633 139.289 22.6502 139.507 22.2825C139.731 21.9148 139.886 21.4954 139.973 21.0242L143.747 21.0415C143.65 21.8516 143.405 22.6329 143.015 23.3856C142.63 24.1324 142.11 24.8018 141.455 25.3935C140.806 25.9795 140.03 26.4449 139.128 26.7896C138.232 27.1286 137.218 27.2981 136.086 27.2981C134.512 27.2981 133.104 26.9419 131.863 26.2295C130.628 25.517 129.651 24.4858 128.933 23.1356C128.221 21.7855 127.865 20.151 127.865 18.232C127.865 16.3074 128.226 14.67 128.95 13.3198C129.674 11.9697 130.657 10.9413 131.898 10.2346C133.139 9.5222 134.535 9.16599 136.086 9.16599C137.109 9.16599 138.057 9.30962 138.93 9.59689C139.809 9.88415 140.587 10.3036 141.265 10.8551C141.943 11.4009 142.495 12.0702 142.92 12.8631C143.351 13.6559 143.627 14.5637 143.747 15.5863ZM146.423 27.0568V9.40729H150.155V17.1893H150.387L156.739 9.40729H161.212L154.662 17.3099L161.289 27.0568H156.825L151.99 19.8005L150.155 22.0412V27.0568H146.423Z" fill="white"/>
</svg>
